<svg width="23" height="23" viewBox="0 0 23 23" fill="none" xmlns="http://www.w3.org/2000/svg">
<path d="M17.25 3.83334V6.70834C17.25 7.21667 17.0481 7.70418 16.6886 8.06362C16.3292 8.42307 15.8417 8.625 15.3333 8.625H7.66667C7.15833 8.625 6.67082 8.42307 6.31138 8.06362C5.95193 7.70418 5.75 7.21667 5.75 6.70834V3.83334C4.9875 3.83334 4.25624 4.13624 3.71707 4.6754C3.1779 5.21457 2.875 5.94584 2.875 6.70834V18.2083C2.875 18.9708 3.1779 19.7021 3.71707 20.2413C4.25624 20.7804 4.9875 21.0833 5.75 21.0833H17.25C18.0125 21.0833 18.7438 20.7804 19.2829 20.2413C19.8221 19.7021 20.125 18.9708 20.125 18.2083V6.70834C20.125 5.94584 19.8221 5.21457 19.2829 4.6754C18.7438 4.13624 18.0125 3.83334 17.25 3.83334Z" fill="#BDBDBD"/>
<path d="M15.3333 1.91666H7.66659C7.13731 1.91666 6.70825 2.34572 6.70825 2.875V6.70833C6.70825 7.2376 7.13731 7.66666 7.66659 7.66666H15.3333C15.8625 7.66666 16.2916 7.2376 16.2916 6.70833V2.875C16.2916 2.34572 15.8625 1.91666 15.3333 1.91666Z" fill="#BDBDBD"/>
</svg>
