<svg width="29" height="29" viewBox="0 0 29 29" fill="none" xmlns="http://www.w3.org/2000/svg">
<path d="M6.39558 6.39554C6.86747 5.92366 7.63254 5.92366 8.10443 6.39554L14.5 12.7911L20.8956 6.39554C21.3675 5.92366 22.1325 5.92366 22.6044 6.39554C23.0763 6.86742 23.0763 7.6325 22.6044 8.10438L16.2088 14.5L22.6044 20.8955C23.0763 21.3674 23.0763 22.1325 22.6044 22.6044C22.1325 23.0763 21.3675 23.0763 20.8956 22.6044L14.5 16.2088L8.10443 22.6044C7.63254 23.0763 6.86747 23.0763 6.39558 22.6044C5.9237 22.1325 5.9237 21.3674 6.39558 20.8955L12.7912 14.5L6.39558 8.10438C5.9237 7.6325 5.9237 6.86742 6.39558 6.39554Z" fill="white"/>
</svg>
