<svg width="38" height="38" viewBox="0 0 38 38" fill="none" xmlns="http://www.w3.org/2000/svg">
<path d="M19.0001 6.33334C12.0045 6.33334 6.33341 12.0044 6.33341 19C6.33341 25.9956 12.0045 31.6667 19.0001 31.6667C25.9957 31.6667 31.6667 25.9956 31.6667 19C31.6667 12.0044 25.9957 6.33334 19.0001 6.33334ZM3.16675 19C3.16675 10.2555 10.2556 3.16667 19.0001 3.16667C27.7446 3.16667 34.8334 10.2555 34.8334 19C34.8334 27.7445 27.7446 34.8333 19.0001 34.8333C10.2556 34.8333 3.16675 27.7445 3.16675 19ZM26.3853 13.8583C27.0389 14.4392 27.0978 15.44 26.5168 16.0936L18.0724 25.5936C17.7719 25.9316 17.3412 26.125 16.889 26.125C16.4367 26.125 16.006 25.9316 15.7056 25.5936L11.4833 20.8436C10.9024 20.19 10.9613 19.1892 11.6148 18.6083C12.2684 18.0273 13.2692 18.0862 13.8501 18.7398L16.889 22.1584L24.15 13.9898C24.731 13.3362 25.7318 13.2773 26.3853 13.8583Z" fill="#037E36"/>
</svg>
