<svg width="21" height="21" viewBox="0 0 21 21" fill="none" xmlns="http://www.w3.org/2000/svg">
<path d="M19.125 4.75H14.3333V3.14958C14.3108 2.53608 14.046 1.95651 13.5969 1.53795C13.1478 1.11938 12.5511 0.895959 11.9375 0.916665H9.06249C8.44892 0.895959 7.85217 1.11938 7.40307 1.53795C6.95396 1.95651 6.68914 2.53608 6.66666 3.14958V4.75H1.87499C1.62082 4.75 1.37707 4.85097 1.19735 5.03069C1.01762 5.21041 0.916656 5.45417 0.916656 5.70833C0.916656 5.9625 1.01762 6.20625 1.19735 6.38598C1.37707 6.5657 1.62082 6.66667 1.87499 6.66667H2.83332V17.2083C2.83332 17.9708 3.13622 18.7021 3.67539 19.2413C4.21456 19.7804 4.94583 20.0833 5.70832 20.0833H15.2917C16.0542 20.0833 16.7854 19.7804 17.3246 19.2413C17.8638 18.7021 18.1667 17.9708 18.1667 17.2083V6.66667H19.125C19.3792 6.66667 19.6229 6.5657 19.8026 6.38598C19.9824 6.20625 20.0833 5.9625 20.0833 5.70833C20.0833 5.45417 19.9824 5.21041 19.8026 5.03069C19.6229 4.85097 19.3792 4.75 19.125 4.75ZM8.58332 3.14958C8.58332 2.99625 8.78457 2.83333 9.06249 2.83333H11.9375C12.2154 2.83333 12.4167 2.99625 12.4167 3.14958V4.75H8.58332V3.14958Z" fill="#8E2E2E"/>
</svg>
