<svg width="26" height="19" viewBox="0 0 26 19" fill="none" xmlns="http://www.w3.org/2000/svg">
<path d="M25.7194 8.72873C24.9208 7.34368 20.5286 0.393515 13.0668 0.618116C6.16656 0.792806 2.17364 6.85705 1.08807 8.72873C0.978554 8.91841 0.920898 9.13359 0.920898 9.35262C0.920898 9.57165 0.978554 9.78682 1.08807 9.97651C1.87418 11.3366 6.07922 18.0871 13.4287 18.0871H13.7406C20.6409 17.9124 24.6463 11.8482 25.7194 9.97651C25.8289 9.78682 25.8865 9.57165 25.8865 9.35262C25.8865 9.13359 25.8289 8.91841 25.7194 8.72873ZM13.6782 15.5915C8.30027 15.7163 4.79399 11.112 3.69594 9.35262C4.94373 7.34368 8.20045 3.23847 13.1916 3.11369C18.5446 2.97643 22.0634 7.59324 23.1739 9.35262C21.8887 11.3616 18.6694 15.4668 13.6782 15.5915Z" fill="#575757"/>
<path d="M13.4039 4.98538C12.5401 4.98538 11.6958 5.24152 10.9776 5.7214C10.2594 6.20128 9.69961 6.88335 9.36906 7.68136C9.03851 8.47937 8.95203 9.35748 9.12054 10.2046C9.28905 11.0518 9.70499 11.83 10.3158 12.4407C10.9265 13.0515 11.7047 13.4675 12.5519 13.636C13.399 13.8045 14.2771 13.718 15.0751 13.3874C15.8732 13.0569 16.5552 12.4971 17.0351 11.7789C17.515 11.0608 17.7711 10.2164 17.7711 9.35263C17.7711 8.19437 17.311 7.08354 16.492 6.26452C15.673 5.4455 14.5621 4.98538 13.4039 4.98538ZM13.4039 11.2243C13.0337 11.2243 12.6718 11.1145 12.364 10.9089C12.0562 10.7032 11.8163 10.4109 11.6747 10.0689C11.533 9.72689 11.4959 9.35056 11.5682 8.98749C11.6404 8.62442 11.8186 8.29092 12.0804 8.02916C12.3422 7.7674 12.6757 7.58914 13.0387 7.51692C13.4018 7.4447 13.7781 7.48176 14.1201 7.62343C14.4621 7.76509 14.7545 8.00499 14.9601 8.31278C15.1658 8.62058 15.2756 8.98245 15.2756 9.35263C15.2756 9.84903 15.0784 10.3251 14.7274 10.6761C14.3763 11.0271 13.9003 11.2243 13.4039 11.2243Z" fill="#575757"/>
</svg>
