<svg width="25" height="21" viewBox="0 0 25 21" fill="none" xmlns="http://www.w3.org/2000/svg">
<path d="M24.7985 10.1159C23.9999 8.73089 19.6077 1.78072 12.1459 2.00532C5.24566 2.18001 1.25275 8.24425 0.167172 10.1159C0.0576556 10.3056 0 10.5208 0 10.7398C0 10.9589 0.0576556 11.174 0.167172 11.3637C0.953277 12.7238 5.15832 19.4743 12.5078 19.4743H12.8197C19.72 19.2996 23.7254 13.2354 24.7985 11.3637C24.908 11.174 24.9656 10.9589 24.9656 10.7398C24.9656 10.5208 24.908 10.3056 24.7985 10.1159ZM12.7573 16.9788C7.37938 17.1035 3.8731 12.4992 2.77504 10.7398C4.02283 8.73089 7.27955 4.62567 12.2707 4.5009C17.6237 4.36364 21.1425 8.98045 22.253 10.7398C20.9678 12.7488 17.7485 16.854 12.7573 16.9788Z" fill="#575757"/>
<mask id="mask0_213_1547" style="mask-type:alpha" maskUnits="userSpaceOnUse" x="8" y="6" width="9" height="10">
<path d="M12.483 6.37259C11.6192 6.37259 10.7749 6.62872 10.0567 7.1086C9.33847 7.58848 8.77871 8.27056 8.44816 9.06857C8.11761 9.86658 8.03113 10.7447 8.19964 11.5918C8.36815 12.439 8.78409 13.2172 9.39486 13.828C10.0056 14.4387 10.7838 14.8547 11.631 15.0232C12.4781 15.1917 13.3562 15.1052 14.1543 14.7747C14.9523 14.4441 15.6343 13.8843 16.1142 13.1662C16.5941 12.448 16.8502 11.6036 16.8502 10.7398C16.8502 9.58157 16.3901 8.47075 15.5711 7.65173C14.7521 6.83271 13.6412 6.37259 12.483 6.37259ZM12.483 12.6115C12.1128 12.6115 11.7509 12.5017 11.4431 12.2961C11.1353 12.0904 10.8954 11.7981 10.7538 11.4561C10.6121 11.1141 10.575 10.7378 10.6473 10.3747C10.7195 10.0116 10.8977 9.67812 11.1595 9.41636C11.4213 9.1546 11.7548 8.97634 12.1178 8.90413C12.4809 8.83191 12.8572 8.86897 13.1992 9.01063C13.5412 9.1523 13.8336 9.3922 14.0392 9.69999C14.2449 10.0078 14.3547 10.3697 14.3547 10.7398C14.3547 11.2362 14.1575 11.7123 13.8065 12.0633C13.4554 12.4143 12.9794 12.6115 12.483 12.6115Z" fill="#575757"/>
</mask>
<g mask="url(#mask0_213_1547)">
<path d="M6.67062 8.93845C7.68096 7.80717 9.41708 7.70913 10.5484 8.71947L14.4126 12.1706C15.5439 13.181 15.6419 14.9171 14.6316 16.0484V16.0484C13.6212 17.1796 11.8851 17.2777 10.7538 16.2673L6.88959 12.8162C5.75831 11.8058 5.66028 10.0697 6.67062 8.93845V8.93845Z" fill="#575757"/>
</g>
<path d="M3 2L22.4717 19.2897" stroke="#575757" stroke-width="3" stroke-linecap="round"/>
</svg>
