<svg width="38" height="38" viewBox="0 0 38 38" fill="none" xmlns="http://www.w3.org/2000/svg">
<path d="M19.0001 6.33334C12.0045 6.33334 6.33341 12.0044 6.33341 19C6.33341 25.9956 12.0045 31.6667 19.0001 31.6667C25.9957 31.6667 31.6667 25.9956 31.6667 19C31.6667 12.0044 25.9957 6.33334 19.0001 6.33334ZM3.16675 19C3.16675 10.2555 10.2556 3.16667 19.0001 3.16667C27.7446 3.16667 34.8334 10.2555 34.8334 19C34.8334 27.7445 27.7446 34.8333 19.0001 34.8333C10.2556 34.8333 3.16675 27.7445 3.16675 19Z" fill="#2E2E36"/>
<path d="M19.0001 15.8333C19.8745 15.8333 20.5834 16.5422 20.5834 17.4167V26.9167C20.5834 27.7911 19.8745 28.5 19.0001 28.5C18.1256 28.5 17.4167 27.7911 17.4167 26.9167V17.4167C17.4167 16.5422 18.1256 15.8333 19.0001 15.8333Z" fill="#2E2E36"/>
<path d="M21.3751 11.875C21.3751 13.1867 20.3118 14.25 19.0001 14.25C17.6884 14.25 16.6251 13.1867 16.6251 11.875C16.6251 10.5633 17.6884 9.5 19.0001 9.5C20.3118 9.5 21.3751 10.5633 21.3751 11.875Z" fill="#2E2E36"/>
</svg>
