<svg width="45" height="45" viewBox="0 0 45 45" fill="none" xmlns="http://www.w3.org/2000/svg">
<path d="M13.125 11.25C13.6223 11.25 14.0992 11.0525 14.4508 10.7008C14.8025 10.3492 15 9.87228 15 9.375C15 8.87772 14.8025 8.40081 14.4508 8.04918C14.0992 7.69754 13.6223 7.5 13.125 7.5H9.375C8.87772 7.5 8.40081 7.69754 8.04918 8.04918C7.69754 8.40081 7.5 8.87772 7.5 9.375V35.625C7.5 36.1223 7.69754 36.5992 8.04918 36.9508C8.40081 37.3025 8.87772 37.5 9.375 37.5H13.125C13.6223 37.5 14.0992 37.3025 14.4508 36.9508C14.8025 36.5992 15 36.1223 15 35.625C15 35.1277 14.8025 34.6508 14.4508 34.2992C14.0992 33.9475 13.6223 33.75 13.125 33.75H11.25V11.25H13.125Z" fill="#FF5053"/>
<path d="M39.0375 21.4125L33.75 13.9125C33.4632 13.5083 33.0281 13.234 32.5397 13.1497C32.0514 13.0654 31.5495 13.1779 31.1438 13.4625C30.941 13.6046 30.7683 13.7855 30.6358 13.9947C30.5033 14.2038 30.4135 14.4372 30.3717 14.6813C30.3299 14.9253 30.3368 15.1752 30.3921 15.4166C30.4473 15.658 30.5499 15.886 30.6938 16.0875L33.9188 20.625H33.75H18.75C18.2527 20.625 17.7758 20.8226 17.4242 21.1742C17.0725 21.5258 16.875 22.0027 16.875 22.5C16.875 22.9973 17.0725 23.4742 17.4242 23.8259C17.7758 24.1775 18.2527 24.375 18.75 24.375H33.75L30.375 28.875C30.2273 29.072 30.1198 29.2962 30.0587 29.5347C29.9976 29.7732 29.984 30.0214 30.0188 30.2652C30.0537 30.5089 30.1362 30.7435 30.2616 30.9553C30.3871 31.1672 30.553 31.3523 30.75 31.5C31.0746 31.7434 31.4693 31.875 31.875 31.875C32.1661 31.875 32.4532 31.8073 32.7135 31.6771C32.9739 31.5469 33.2003 31.3579 33.375 31.125L39 23.625C39.2401 23.3079 39.3732 22.9226 39.3799 22.5249C39.3867 22.1272 39.2667 21.7376 39.0375 21.4125Z" fill="#FF5053"/>
</svg>
