<svg width="38" height="38" viewBox="0 0 38 38" fill="none" xmlns="http://www.w3.org/2000/svg">
<path d="M31.9991 9.04084C32.2973 8.74269 32.4648 8.33831 32.4648 7.91667C32.4648 7.49502 32.2973 7.09065 31.9991 6.7925C31.701 6.49435 31.2966 6.32686 30.875 6.32686C30.4533 6.32686 30.0489 6.49435 29.7508 6.7925L19.8075 16.7833L14.5825 11.5425C14.8855 10.9043 15.0424 10.2065 15.0416 9.5C15.0416 8.56054 14.763 7.64218 14.2411 6.86104C13.7192 6.07991 12.9773 5.47109 12.1094 5.11157C11.2414 4.75206 10.2864 4.65799 9.36495 4.84127C8.44354 5.02455 7.59717 5.47695 6.93287 6.14125C6.26857 6.80554 5.81618 7.65191 5.6329 8.57332C5.44962 9.49473 5.54368 10.4498 5.9032 11.3177C6.26272 12.1857 6.87154 12.9275 7.65267 13.4495C8.4338 13.9714 9.35217 14.25 10.2916 14.25C10.9993 14.2458 11.6972 14.0835 12.3341 13.775L17.575 19L12.3658 24.225C11.7192 23.9119 11.01 23.7494 10.2916 23.75C9.35217 23.75 8.4338 24.0286 7.65267 24.5505C6.87154 25.0725 6.26272 25.8143 5.9032 26.6823C5.54368 27.5502 5.44962 28.5053 5.6329 29.4267C5.81618 30.3481 6.26857 31.1945 6.93287 31.8588C7.59717 32.5231 8.44354 32.9755 9.36495 33.1587C10.2864 33.342 11.2414 33.2479 12.1094 32.8884C12.9773 32.5289 13.7192 31.9201 14.2411 31.139C14.763 30.3578 15.0416 29.4395 15.0416 28.5C15.0354 27.8095 14.8787 27.1287 14.5825 26.505L31.9991 9.04084ZM10.2916 11.0833C9.97847 11.0833 9.67235 10.9905 9.41198 10.8165C9.1516 10.6425 8.94866 10.3952 8.82882 10.1059C8.70898 9.8166 8.67762 9.49825 8.73872 9.19111C8.79981 8.88397 8.95061 8.60185 9.17204 8.38042C9.39348 8.15898 9.6756 8.00819 9.98274 7.94709C10.2899 7.886 10.6082 7.91735 10.8975 8.03719C11.1869 8.15703 11.4341 8.35997 11.6081 8.62035C11.7821 8.88073 11.875 9.18685 11.875 9.5C11.875 9.91993 11.7081 10.3227 11.4112 10.6196C11.1143 10.9165 10.7116 11.0833 10.2916 11.0833ZM10.2916 30.0833C9.97847 30.0833 9.67235 29.9905 9.41198 29.8165C9.1516 29.6425 8.94866 29.3952 8.82882 29.1059C8.70898 28.8166 8.67762 28.4982 8.73872 28.1911C8.79981 27.884 8.95061 27.6018 9.17204 27.3804C9.39348 27.159 9.6756 27.0082 9.98274 26.9471C10.2899 26.886 10.6082 26.9174 10.8975 27.0372C11.1869 27.157 11.4341 27.36 11.6081 27.6203C11.7821 27.8807 11.875 28.1868 11.875 28.5C11.875 28.9199 11.7081 29.3227 11.4112 29.6196C11.1143 29.9165 10.7116 30.0833 10.2916 30.0833Z" fill="#231F20"/>
<path d="M24.0825 21.0425C23.7844 20.7443 23.38 20.5768 22.9583 20.5768C22.5367 20.5768 22.1323 20.7443 21.8342 21.0425C21.536 21.3406 21.3685 21.745 21.3685 22.1667C21.3685 22.5883 21.536 22.9927 21.8342 23.2908L29.7508 31.2075C29.898 31.3559 30.0732 31.4737 30.2661 31.5541C30.459 31.6345 30.666 31.6758 30.875 31.6758C31.084 31.6758 31.291 31.6345 31.4839 31.5541C31.6769 31.4737 31.852 31.3559 31.9992 31.2075C32.1476 31.0603 32.2654 30.8852 32.3458 30.6922C32.4261 30.4993 32.4675 30.2923 32.4675 30.0833C32.4675 29.8743 32.4261 29.6674 32.3458 29.4744C32.2654 29.2815 32.1476 29.1063 31.9992 28.9592L24.0825 21.0425Z" fill="#231F20"/>
</svg>
