<svg width="21" height="19" viewBox="0 0 21 19" fill="none" xmlns="http://www.w3.org/2000/svg">
<path d="M7.62496 8.54165C8.38312 8.54165 9.12426 8.31683 9.75464 7.89562C10.385 7.47441 10.8764 6.87572 11.1665 6.17527C11.4566 5.47482 11.5325 4.70407 11.3846 3.96047C11.2367 3.21688 10.8716 2.53384 10.3355 1.99774C9.79943 1.46164 9.1164 1.09655 8.37281 0.948643C7.62921 0.800733 6.85846 0.876646 6.15801 1.16678C5.45756 1.45692 4.85887 1.94825 4.43766 2.57863C4.01645 3.20902 3.79163 3.95016 3.79163 4.70832C3.79163 5.72498 4.19549 6.70001 4.91438 7.4189C5.63327 8.13778 6.6083 8.54165 7.62496 8.54165ZM7.62496 2.79165C8.00404 2.79165 8.37461 2.90406 8.6898 3.11467C9.005 3.32528 9.25066 3.62462 9.39573 3.97484C9.5408 4.32507 9.57875 4.71045 9.5048 5.08224C9.43084 5.45404 9.2483 5.79556 8.98025 6.06361C8.7122 6.33166 8.37068 6.5142 7.99888 6.58816C7.62709 6.66211 7.24171 6.62416 6.89148 6.47909C6.54126 6.33402 6.24192 6.08836 6.03131 5.77316C5.8207 5.45797 5.70829 5.0874 5.70829 4.70832C5.70829 4.19999 5.91023 3.71248 6.26967 3.35303C6.62912 2.99359 7.11663 2.79165 7.62496 2.79165Z" fill="#BDBDBD"/>
<path d="M15.2916 10.4583C15.8602 10.4583 16.4161 10.2897 16.8889 9.97379C17.3617 9.65788 17.7302 9.20887 17.9478 8.68353C18.1654 8.15819 18.2223 7.58012 18.1114 7.02243C18.0005 6.46473 17.7266 5.95246 17.3246 5.55038C16.9225 5.14831 16.4102 4.87449 15.8525 4.76356C15.2948 4.65262 14.7167 4.70956 14.1914 4.92716C13.6661 5.14476 13.2171 5.51326 12.9012 5.98605C12.5852 6.45884 12.4166 7.01469 12.4166 7.58331C12.4166 8.34581 12.7195 9.07708 13.2587 9.61625C13.7979 10.1554 14.5291 10.4583 15.2916 10.4583ZM15.2916 6.62498C15.4812 6.62498 15.6665 6.68119 15.824 6.78649C15.9816 6.89179 16.1045 7.04146 16.177 7.21658C16.2495 7.39169 16.2685 7.58438 16.2315 7.77028C16.1946 7.95617 16.1033 8.12693 15.9693 8.26096C15.8352 8.39498 15.6645 8.48626 15.4786 8.52323C15.2927 8.56021 15.1 8.54123 14.9249 8.4687C14.7498 8.39616 14.6001 8.27333 14.4948 8.11574C14.3895 7.95814 14.3333 7.77285 14.3333 7.58331C14.3333 7.32915 14.4343 7.08539 14.614 6.90567C14.7937 6.72595 15.0375 6.62498 15.2916 6.62498Z" fill="#BDBDBD"/>
<path d="M15.2916 11.4167C14.2296 11.4178 13.1981 11.7718 12.3591 12.4229C11.4204 11.4879 10.2259 10.8518 8.92621 10.5948C7.62648 10.3378 6.27977 10.4714 5.05589 10.9788C3.832 11.4862 2.78577 12.3446 2.04913 13.4459C1.31248 14.5471 0.918418 15.8418 0.916626 17.1667C0.916626 17.4208 1.01759 17.6646 1.19732 17.8443C1.37704 18.024 1.62079 18.125 1.87496 18.125C2.12913 18.125 2.37288 18.024 2.5526 17.8443C2.73233 17.6646 2.83329 17.4208 2.83329 17.1667C2.83329 15.8958 3.33813 14.677 4.23674 13.7784C5.13535 12.8798 6.35413 12.375 7.62496 12.375C8.89579 12.375 10.1146 12.8798 11.0132 13.7784C11.9118 14.677 12.4166 15.8958 12.4166 17.1667C12.4166 17.4208 12.5176 17.6646 12.6973 17.8443C12.877 18.024 13.1208 18.125 13.375 18.125C13.6291 18.125 13.8729 18.024 14.0526 17.8443C14.2323 17.6646 14.3333 17.4208 14.3333 17.1667C14.3356 16.0439 14.0519 14.9391 13.5091 13.9562C13.9326 13.6216 14.4418 13.4129 14.9784 13.3541C15.5149 13.2953 16.0572 13.3887 16.5432 13.6237C17.0291 13.8586 17.4391 14.2257 17.7262 14.6828C18.0133 15.1399 18.1659 15.6685 18.1666 16.2083C18.1666 16.4625 18.2676 16.7062 18.4473 16.886C18.627 17.0657 18.8708 17.1667 19.125 17.1667C19.3791 17.1667 19.6229 17.0657 19.8026 16.886C19.9823 16.7062 20.0833 16.4625 20.0833 16.2083C20.0833 14.9375 19.5785 13.7187 18.6798 12.8201C17.7812 11.9215 16.5625 11.4167 15.2916 11.4167Z" fill="#BDBDBD"/>
</svg>
