<svg width="23" height="23" viewBox="0 0 23 23" fill="none" xmlns="http://www.w3.org/2000/svg">
<path d="M8.62496 10.5417C9.38312 10.5417 10.1243 10.3168 10.7546 9.89562C11.385 9.47441 11.8764 8.87572 12.1665 8.17527C12.4566 7.47482 12.5325 6.70407 12.3846 5.96047C12.2367 5.21688 11.8716 4.53384 11.3355 3.99774C10.7994 3.46164 10.1164 3.09655 9.37281 2.94864C8.62921 2.80073 7.85846 2.87665 7.15801 3.16678C6.45756 3.45692 5.85887 3.94825 5.43766 4.57863C5.01645 5.20902 4.79163 5.95016 4.79163 6.70832C4.79163 7.72498 5.19549 8.70001 5.91438 9.4189C6.63327 10.1378 7.6083 10.5417 8.62496 10.5417ZM8.62496 4.79165C9.00404 4.79165 9.37461 4.90406 9.6898 5.11467C10.005 5.32528 10.2507 5.62462 10.3957 5.97484C10.5408 6.32507 10.5788 6.71045 10.5048 7.08224C10.4308 7.45404 10.2483 7.79556 9.98025 8.06361C9.7122 8.33166 9.37068 8.5142 8.99888 8.58816C8.62709 8.66211 8.24171 8.62416 7.89148 8.47909C7.54126 8.33402 7.24192 8.08836 7.03131 7.77316C6.8207 7.45797 6.70829 7.0874 6.70829 6.70832C6.70829 6.19999 6.91023 5.71248 7.26967 5.35303C7.62912 4.99359 8.11663 4.79165 8.62496 4.79165Z" fill="#98FFDA"/>
<path d="M16.2916 12.4583C16.8602 12.4583 17.4161 12.2897 17.8889 11.9738C18.3617 11.6579 18.7302 11.2089 18.9478 10.6835C19.1654 10.1582 19.2223 9.58012 19.1114 9.02243C19.0005 8.46473 18.7266 7.95246 18.3246 7.55038C17.9225 7.14831 17.4102 6.87449 16.8525 6.76356C16.2948 6.65262 15.7167 6.70956 15.1914 6.92716C14.6661 7.14476 14.2171 7.51326 13.9012 7.98605C13.5852 8.45884 13.4166 9.01469 13.4166 9.58331C13.4166 10.3458 13.7195 11.0771 14.2587 11.6162C14.7979 12.1554 15.5291 12.4583 16.2916 12.4583ZM16.2916 8.62498C16.4812 8.62498 16.6665 8.68119 16.824 8.78649C16.9816 8.89179 17.1045 9.04146 17.177 9.21658C17.2495 9.39169 17.2685 9.58438 17.2315 9.77028C17.1946 9.95617 17.1033 10.1269 16.9693 10.261C16.8352 10.395 16.6645 10.4863 16.4786 10.5232C16.2927 10.5602 16.1 10.5412 15.9249 10.4687C15.7498 10.3962 15.6001 10.2733 15.4948 10.1157C15.3895 9.95814 15.3333 9.77285 15.3333 9.58331C15.3333 9.32915 15.4343 9.08539 15.614 8.90567C15.7937 8.72595 16.0375 8.62498 16.2916 8.62498Z" fill="#98FFDA"/>
<path d="M16.2916 13.4167C15.2296 13.4178 14.1981 13.7718 13.3591 14.4229C12.4204 13.4879 11.2259 12.8518 9.92621 12.5948C8.62648 12.3378 7.27977 12.4714 6.05589 12.9788C4.832 13.4862 3.78577 14.3446 3.04913 15.4459C2.31248 16.5471 1.91842 17.8418 1.91663 19.1667C1.91663 19.4208 2.01759 19.6646 2.19732 19.8443C2.37704 20.024 2.62079 20.125 2.87496 20.125C3.12913 20.125 3.37288 20.024 3.5526 19.8443C3.73233 19.6646 3.83329 19.4208 3.83329 19.1667C3.83329 17.8958 4.33813 16.677 5.23674 15.7784C6.13535 14.8798 7.35413 14.375 8.62496 14.375C9.89579 14.375 11.1146 14.8798 12.0132 15.7784C12.9118 16.677 13.4166 17.8958 13.4166 19.1667C13.4166 19.4208 13.5176 19.6646 13.6973 19.8443C13.877 20.024 14.1208 20.125 14.375 20.125C14.6291 20.125 14.8729 20.024 15.0526 19.8443C15.2323 19.6646 15.3333 19.4208 15.3333 19.1667C15.3356 18.0439 15.0519 16.9391 14.5091 15.9562C14.9326 15.6216 15.4418 15.4129 15.9784 15.3541C16.5149 15.2953 17.0572 15.3887 17.5432 15.6237C18.0291 15.8586 18.4391 16.2257 18.7262 16.6828C19.0133 17.1399 19.1659 17.6685 19.1666 18.2083C19.1666 18.4625 19.2676 18.7062 19.4473 18.886C19.627 19.0657 19.8708 19.1667 20.125 19.1667C20.3791 19.1667 20.6229 19.0657 20.8026 18.886C20.9823 18.7062 21.0833 18.4625 21.0833 18.2083C21.0833 16.9375 20.5785 15.7187 19.6798 14.8201C18.7812 13.9215 17.5625 13.4167 16.2916 13.4167Z" fill="#98FFDA"/>
</svg>
