<svg width="38" height="38" viewBox="0 0 38 38" fill="none" xmlns="http://www.w3.org/2000/svg">
<path d="M19.0001 6.33334C12.0045 6.33334 6.33341 12.0044 6.33341 19C6.33341 25.9956 12.0045 31.6667 19.0001 31.6667C25.9957 31.6667 31.6667 25.9956 31.6667 19C31.6667 12.0044 25.9957 6.33334 19.0001 6.33334ZM3.16675 19C3.16675 10.2555 10.2556 3.16667 19.0001 3.16667C27.7446 3.16667 34.8334 10.2555 34.8334 19C34.8334 27.7445 27.7446 34.8333 19.0001 34.8333C10.2556 34.8333 3.16675 27.7445 3.16675 19ZM12.3388 12.3388C12.9572 11.7204 13.9597 11.7204 14.578 12.3388L19.0001 16.7608L23.4222 12.3388C24.0405 11.7204 25.043 11.7204 25.6613 12.3388C26.2797 12.9571 26.2797 13.9596 25.6613 14.5779L21.2393 19L25.6613 23.4221C26.2797 24.0404 26.2797 25.0429 25.6613 25.6613C25.043 26.2796 24.0405 26.2796 23.4222 25.6613L19.0001 21.2392L14.578 25.6613C13.9597 26.2796 12.9572 26.2796 12.3388 25.6613C11.7205 25.0429 11.7205 24.0404 12.3388 23.4221L16.7609 19L12.3388 14.5779C11.7205 13.9596 11.7205 12.9571 12.3388 12.3388Z" fill="#C81919"/>
</svg>
