<svg width="20" height="24" viewBox="0 0 20 24" fill="none" xmlns="http://www.w3.org/2000/svg">
<path d="M18.25 9.625C18.25 16.3333 9.625 22.0833 9.625 22.0833C9.625 22.0833 1 16.3333 1 9.625C1 7.33751 1.9087 5.14371 3.5262 3.5262C5.1437 1.9087 7.33751 1 9.625 1C11.9125 1 14.1063 1.9087 15.7238 3.5262C17.3413 5.14371 18.25 7.33751 18.25 9.625Z" stroke="white" stroke-opacity="0.8" stroke-width="2" stroke-linecap="round" stroke-linejoin="round"/>
<path d="M9.625 12.5C11.2128 12.5 12.5 11.2128 12.5 9.625C12.5 8.03718 11.2128 6.75 9.625 6.75C8.03718 6.75 6.75 8.03718 6.75 9.625C6.75 11.2128 8.03718 12.5 9.625 12.5Z" stroke="white" stroke-opacity="0.8" stroke-width="2" stroke-linecap="round" stroke-linejoin="round"/>
</svg>
