<svg width="46" height="46" viewBox="0 0 46 46" fill="none" xmlns="http://www.w3.org/2000/svg">
<path d="M38.7364 10.9442C39.0973 10.5833 39.3001 10.0937 39.3001 9.58334C39.3001 9.07292 39.0973 8.58342 38.7364 8.2225C38.3755 7.86159 37.886 7.65883 37.3756 7.65883C36.8652 7.65883 36.3757 7.86159 36.0148 8.2225L23.9781 20.3167L17.6531 13.9725C18.0199 13.1999 18.2098 12.3552 18.2089 11.5C18.2089 10.3628 17.8717 9.25106 17.2399 8.30547C16.6081 7.35989 15.71 6.6229 14.6594 6.1877C13.6087 5.75249 12.4525 5.63862 11.3372 5.86049C10.2218 6.08235 9.19721 6.62999 8.39306 7.43414C7.58891 8.23829 7.04128 9.26284 6.81941 10.3782C6.59755 11.4936 6.71141 12.6498 7.14662 13.7004C7.58182 14.7511 8.31881 15.6491 9.2644 16.281C10.21 16.9128 11.3217 17.25 12.4589 17.25C13.3156 17.2449 14.1604 17.0485 14.9314 16.675L21.2756 23L14.9698 29.325C14.1871 28.9459 13.3286 28.7493 12.4589 28.75C11.3217 28.75 10.21 29.0872 9.2644 29.7191C8.31881 30.3509 7.58182 31.2489 7.14662 32.2996C6.71141 33.3502 6.59755 34.5064 6.81941 35.6218C7.04128 36.7372 7.58891 37.7617 8.39306 38.5659C9.19721 39.37 10.2218 39.9177 11.3372 40.1395C12.4525 40.3614 13.6087 40.2475 14.6594 39.8123C15.71 39.3771 16.6081 38.6401 17.2399 37.6945C17.8717 36.7489 18.2089 35.6372 18.2089 34.5C18.2014 33.6642 18.0117 32.84 17.6531 32.085L38.7364 10.9442ZM12.4589 13.4167C12.0798 13.4167 11.7093 13.3043 11.3941 13.0937C11.0789 12.883 10.8332 12.5837 10.6882 12.2335C10.5431 11.8833 10.5051 11.4979 10.5791 11.1261C10.653 10.7543 10.8356 10.4128 11.1036 10.1447C11.3717 9.87666 11.7132 9.69412 12.085 9.62016C12.4568 9.54621 12.8422 9.58417 13.1924 9.72923C13.5426 9.8743 13.842 10.12 14.0526 10.4352C14.2632 10.7504 14.3756 11.1209 14.3756 11.5C14.3756 12.0083 14.1737 12.4958 13.8142 12.8553C13.4548 13.2147 12.9673 13.4167 12.4589 13.4167ZM12.4589 36.4167C12.0798 36.4167 11.7093 36.3043 11.3941 36.0937C11.0789 35.883 10.8332 35.5837 10.6882 35.2335C10.5431 34.8833 10.5051 34.4979 10.5791 34.1261C10.653 33.7543 10.8356 33.4128 11.1036 33.1447C11.3717 32.8767 11.7132 32.6941 12.085 32.6202C12.4568 32.5462 12.8422 32.5842 13.1924 32.7292C13.5426 32.8743 13.842 33.12 14.0526 33.4352C14.2632 33.7504 14.3756 34.1209 14.3756 34.5C14.3756 35.0083 14.1737 35.4958 13.8142 35.8553C13.4548 36.2147 12.9673 36.4167 12.4589 36.4167Z" fill="#E4E4E4"/>
<path d="M29.1534 25.4726C28.7925 25.1117 28.303 24.9089 27.7926 24.9089C27.2821 24.9089 26.7926 25.1117 26.4317 25.4726C26.0708 25.8335 25.868 26.323 25.868 26.8334C25.868 27.3439 26.0708 27.8334 26.4317 28.1943L36.0151 37.7776C36.1932 37.9573 36.4052 38.0998 36.6388 38.1972C36.8723 38.2945 37.1229 38.3446 37.3759 38.3446C37.6289 38.3446 37.8794 38.2945 38.113 38.1972C38.3466 38.0998 38.5585 37.9573 38.7367 37.7776C38.9164 37.5994 39.059 37.3874 39.1563 37.1539C39.2536 36.9203 39.3037 36.6698 39.3037 36.4168C39.3037 36.1638 39.2536 35.9132 39.1563 35.6797C39.059 35.4461 38.9164 35.2341 38.7367 35.0559L29.1534 25.4726Z" fill="#E4E4E4"/>
</svg>
