<svg width="24" height="18" viewBox="0 0 24 18" fill="none" xmlns="http://www.w3.org/2000/svg">
<path d="M12 8.03313L22.3837 1.3625C21.9662 1.04937 21.4593 0.878495 20.9375 0.875H3.06246C2.54062 0.878495 2.03368 1.04937 1.61621 1.3625L12 8.03313Z" fill="white" fill-opacity="0.8"/>
<path d="M12.4388 9.68243L12.3006 9.74743H12.2356C12.1608 9.78086 12.0814 9.80277 12 9.81243C11.9326 9.82093 11.8643 9.82093 11.7969 9.81243H11.7319L11.5938 9.74743L0.70625 2.71118C0.654232 2.90743 0.626938 3.10941 0.625 3.31243V14.6874C0.625 15.3339 0.881807 15.9539 1.33893 16.411C1.79605 16.8681 2.41603 17.1249 3.0625 17.1249H20.9375C21.584 17.1249 22.204 16.8681 22.6611 16.411C23.1182 15.9539 23.375 15.3339 23.375 14.6874V3.31243C23.3731 3.10941 23.3458 2.90743 23.2937 2.71118L12.4388 9.68243Z" fill="white" fill-opacity="0.8"/>
</svg>
