<svg width="26" height="22" viewBox="0 0 26 22" fill="none" xmlns="http://www.w3.org/2000/svg">
<path d="M18.2159 20.3678V18.2158C18.2159 17.0744 17.7625 15.9796 16.9553 15.1725C16.1482 14.3653 15.0534 13.9119 13.9119 13.9119H5.30398C4.1625 13.9119 3.06776 14.3653 2.26061 15.1725C1.45345 15.9796 1 17.0744 1 18.2158V20.3678" stroke="white" stroke-opacity="0.8" stroke-width="2" stroke-linecap="round" stroke-linejoin="round"/>
<path d="M9.60794 9.60796C11.985 9.60796 13.9119 7.68101 13.9119 5.30398C13.9119 2.92696 11.985 1 9.60794 1C7.23091 1 5.30396 2.92696 5.30396 5.30398C5.30396 7.68101 7.23091 9.60796 9.60794 9.60796Z" stroke="white" stroke-opacity="0.8" stroke-width="2" stroke-linecap="round" stroke-linejoin="round"/>
<path d="M24.6721 20.3679V18.2159C24.6714 17.2622 24.354 16.3359 23.7697 15.5822C23.1855 14.8285 22.3674 14.2902 21.4441 14.0518" stroke="white" stroke-opacity="0.8" stroke-width="2" stroke-linecap="round" stroke-linejoin="round"/>
<path d="M17.1399 1.13989C18.0657 1.37694 18.8863 1.91536 19.4723 2.67029C20.0583 3.42522 20.3763 4.35371 20.3763 5.30938C20.3763 6.26504 20.0583 7.19353 19.4723 7.94846C18.8863 8.70339 18.0657 9.24182 17.1399 9.47886" stroke="white" stroke-opacity="0.8" stroke-width="2" stroke-linecap="round" stroke-linejoin="round"/>
</svg>
