<svg width="17" height="20" viewBox="0 0 17 20" fill="none" xmlns="http://www.w3.org/2000/svg">
<path d="M4.2783 14.1002C-1.08889 7.91301 -0.744827 3.13394 1.70874 1.01262C1.88762 0.857959 2.06401 0.706389 2.23793 0.557909C2.81543 0.0648389 3.63031 0.204799 4.05803 0.870529C4.06587 0.882729 4.07354 0.895059 4.08106 0.907529L5.44451 3.17018C5.82405 3.80005 5.73032 4.6585 5.22722 5.1603L3.99238 6.39195C3.57629 6.80696 3.43162 7.47881 3.63105 8.06998C4.03002 9.25258 4.85301 10.5627 6.09999 12.0002C7.3468 13.4375 8.48293 14.386 9.50845 14.8456C10.0212 15.0755 10.604 14.9086 10.9639 14.4289L12.0324 13.0053C12.4677 12.4253 13.2125 12.3172 13.7588 12.7548L15.724 14.3285C16.3143 14.8011 16.4604 15.7358 16.0503 16.4162C16.0431 16.4283 16.0356 16.4402 16.0281 16.452C15.899 16.6532 15.7672 16.8572 15.6328 17.064C13.7926 19.8924 9.64551 20.2874 4.2783 14.1002Z" fill="white" fill-opacity="0.8"/>
</svg>
